Knight and Day (2010) 720p X264 MKV DTS Multisub 6x

PLOT

June Havens finds her everyday life tangled with that of a secret agent 
who has realized he isn't supposed to survive his latest mission..

MM:    http://www.moviemeter.nl/film/62358

IMDB:   http://www.imdb.com/title/tt1013743/

INFO

Source.....: Knight and Day 2010 720p DTS Bluray x264-TDM
Bitrate....: 6502 Kbps
Audio......: DTS 5.1
Bitrate....: 1510 Kbps
Subs.......: Dutch, English, Romanian, Spanish, Dansk, Brasilian

Thanks To JoyTor

Enjoy This Nice Release

PLAYER INFO

      Complete name : C:\MKV\Knight.and.Day.2010.720p.DTS.Multi.NLUPPER.mkv
      Format : Matroska
      File size : 4.77 GiB
      Duration : 1h 45mn
      Overall bit rate : 6 502 Kbps
      Encoded date : UTC 2010-09-27 06:42:37
      Writing application : mkvmerge v4.3.0 ('Escape from the Island') built on Sep  5 2010 10:30:51
      Writing library : libebml v1.0.0 + libmatroska v1.0.0
   Video #1
      ID : 1
      Format : AVC
      Format/Info : Advanced Video Codec
      Format profile : Baseline@L4.0
      Format settings, CABAC : No
      Format settings, ReFrames : 1 frame
      Muxing mode : Container profile=Unknown@4.0
      Codec ID : V_MPEG4/ISO/AVC
      Duration : 1h 44mn
      Bit rate : 4 862 Kbps
      Width : 1 280 pixels
      Height : 720 pixels
      Display aspect ratio : 16:9
      Frame rate : 29.970 fps
      Original frame rate : 24.000 fps
      Resolution : 24 bits
      Colorimetry : 4:2:0
      Scan type : Progressive
      Bits/(Pixel*Frame) : 0.176
      Stream size : 3.56 GiB (75%)
      Title : Knight and Day
   Audio #2
      ID : 2
      Format : DTS
      Format/Info : Digital Theater Systems
      Codec ID : A_DTS
      Duration : 1h 45mn
      Bit rate mode : Constant
      Bit rate : 1 510 Kbps
      Channel(s) : 6 channels
      Channel positions : Front: L C R, Surround: L R, LFE
      Sampling rate : 48.0 KHz
      Resolution : 24 bits
      Stream size : 1.11 GiB (23%)
      Title : English DTS 5.1
   Text #3
      ID : 3
      Format : UTF-8
      Codec ID : S_TEXT/UTF8
      Codec ID/Info : UTF-8 Plain Text
      Title : Brasilian
      Language : Portuguese
   Text #4
      ID : 4
      Format : UTF-8
      Codec ID : S_TEXT/UTF8
      Codec ID/Info : UTF-8 Plain Text
      Title : Dansk
      Language : Danish
   Text #5
      ID : 5
      Format : UTF-8
      Codec ID : S_TEXT/UTF8
      Codec ID/Info : UTF-8 Plain Text
      Title : Dutch
      Language : Dutch
   Text #6
      ID : 6
      Format : UTF-8
      Codec ID : S_TEXT/UTF8
      Codec ID/Info : UTF-8 Plain Text
      Title : English
   Text #7
      ID : 7
      Format : UTF-8
      Codec ID : S_TEXT/UTF8
      Codec ID/Info : UTF-8 Plain Text
      Title : Romanian
      Language : Romanian
   Text #8
      ID : 8
      Format : UTF-8
      Codec ID : S_TEXT/UTF8
      Codec ID/Info : UTF-8 Plain Text
      Title : Spanish
      Language : Spanish